<svg id="svg" xmlns="http://www.w3.org/2000/svg" xmlns:xlink="http://www.w3.org/1999/xlink" width="400" height="400" viewBox="0, 0, 400,400"><g id="svgg"><path id="path0" d="M6.490 63.772 C 10.741 82.875,13.521 86.821,43.574 116.429 C 76.642 149.006,75.932 147.582,62.703 154.798 L 52.597 160.310 53.571 165.501 C 54.864 172.392,52.843 170.346,78.599 190.825 C 91.155 200.808,101.432 209.367,101.437 209.845 C 101.441 210.323,102.054 214.430,102.797 218.971 L 104.150 227.228 85.498 262.543 C 75.239 281.966,63.677 303.761,59.804 310.978 L 52.763 324.098 66.440 332.260 L 80.116 340.421 104.701 328.517 C 118.222 321.970,146.254 308.361,166.992 298.275 C 187.731 288.189,204.855 280.112,205.046 280.326 C 205.237 280.539,199.394 290.036,192.061 301.429 C 184.728 312.821,178.693 322.566,178.650 323.083 C 178.521 324.620,199.058 337.264,200.976 336.829 C 203.480 336.261,277.022 295.150,277.081 294.286 C 277.108 293.893,273.587 289.600,269.256 284.745 C 260.351 274.762,261.425 273.065,274.286 276.795 C 280.931 278.723,284.892 277.805,289.745 273.214 C 290.783 272.232,292.394 271.429,293.325 271.429 C 298.541 271.429,301.129 254.269,296.797 248.409 C 293.081 243.383,294.128 241.967,299.510 244.737 C 304.940 247.532,328.275 255.714,330.816 255.714 C 332.398 255.714,375.535 218.325,392.586 202.175 L 395.887 199.048 385.838 191.716 L 375.789 184.384 346.434 195.049 C 311.872 207.606,314.281 207.262,314.304 199.643 C 314.319 194.521,315.248 192.566,320.247 187.143 C 325.173 181.799,358.761 146.465,389.181 114.627 L 396.363 107.111 385.681 97.188 C 372.133 84.602,389.067 81.543,275.000 117.180 L 237.857 128.784 224.406 127.860 L 210.956 126.936 185.835 109.371 C 154.675 87.583,150.198 86.200,141.710 95.738 L 136.429 101.674 122.143 96.702 C 104.185 90.453,85.819 81.907,75.966 75.216 C 71.783 72.376,65.676 69.357,62.395 68.509 C 59.113 67.660,52.250 65.618,47.143 63.970 C 40.827 61.932,32.696 60.768,21.719 60.331 L 5.581 59.687 6.490 63.772 " stroke="none" fill="#000000" fill-rule="evenodd"></path></g></svg>